<svg width="126" height="48" viewBox="0 0 126 48" fill="none" xmlns="http://www.w3.org/2000/svg">
<g filter="url(#filter0_d_5221_1741)">
<rect x="2.33398" y="1" width="121.333" height="44" rx="8" fill="white"/>
<path d="M71.8418 28.1449C71.5091 28.9135 71.1153 29.6211 70.659 30.2715C70.0371 31.1583 69.5278 31.7721 69.1354 32.113C68.527 32.6724 67.8752 32.959 67.1772 32.9753C66.6761 32.9753 66.0718 32.8327 65.3683 32.5434C64.6626 32.2555 64.014 32.113 63.421 32.113C62.7991 32.113 62.132 32.2555 61.4185 32.5434C60.704 32.8327 60.1283 32.9834 59.6882 32.9984C59.0188 33.0269 58.3517 32.7322 57.6857 32.113C57.2607 31.7422 56.729 31.1067 56.0921 30.2063C55.4088 29.2449 54.847 28.13 54.4069 26.8589C53.9355 25.486 53.6992 24.1565 53.6992 22.8694C53.6992 21.3951 54.0178 20.1235 54.6559 19.0578C55.1574 18.2019 55.8246 17.5267 56.6596 17.0311C57.4946 16.5354 58.3969 16.2828 59.3685 16.2666C59.9002 16.2666 60.5974 16.4311 61.4637 16.7543C62.3277 17.0786 62.8824 17.243 63.1256 17.243C63.3075 17.243 63.9237 17.0507 64.9684 16.6674C65.9564 16.3119 66.7902 16.1647 67.4732 16.2226C69.3241 16.372 70.7147 17.1017 71.6395 18.4162C69.9841 19.4192 69.1653 20.824 69.1816 22.6262C69.1965 24.03 69.7057 25.1981 70.7066 26.1256C71.1601 26.5561 71.6667 26.8888 72.2302 27.1251C72.108 27.4795 71.979 27.819 71.8418 28.1449ZM67.5968 11.4404C67.5968 12.5406 67.1948 13.5679 66.3936 14.5188C65.4267 15.6492 64.2572 16.3024 62.989 16.1993C62.9729 16.0673 62.9635 15.9284 62.9635 15.7824C62.9635 14.7261 63.4233 13.5958 64.2399 12.6715C64.6475 12.2036 65.166 11.8145 65.7948 11.5041C66.4221 11.1983 67.0156 11.0292 67.5737 11.0002C67.59 11.1473 67.5968 11.2944 67.5968 11.4404V11.4404Z" fill="black"/>
<rect x="2.83398" y="1.5" width="120.333" height="43" rx="7.5" stroke="#EAECF0"/>
</g>
<defs>
<filter id="filter0_d_5221_1741" x="0.333984" y="0" width="125.334" height="48" filterUnits="userSpaceOnUse" color-interpolation-filters="sRGB">
<feFlood flood-opacity="0" result="BackgroundImageFix"/>
<feColorMatrix in="SourceAlpha" type="matrix" values="0 0 0 0 0 0 0 0 0 0 0 0 0 0 0 0 0 0 127 0" result="hardAlpha"/>
<feOffset dy="1"/>
<feGaussianBlur stdDeviation="1"/>
<feColorMatrix type="matrix" values="0 0 0 0 0.0627451 0 0 0 0 0.0941176 0 0 0 0 0.156863 0 0 0 0.05 0"/>
<feBlend mode="normal" in2="BackgroundImageFix" result="effect1_dropShadow_5221_1741"/>
<feBlend mode="normal" in="SourceGraphic" in2="effect1_dropShadow_5221_1741" result="shape"/>
</filter>
</defs>
</svg>
