<svg width="126" height="48" viewBox="0 0 126 48" fill="none" xmlns="http://www.w3.org/2000/svg">
<g filter="url(#filter0_d_5149_15448)">
<rect x="2.66602" y="1" width="121.333" height="44" rx="8" fill="white"/>
<g clip-path="url(#clip0_5149_15448)">
<path d="M75.332 23C75.332 16.3726 69.9595 11 63.332 11C56.7046 11 51.332 16.3726 51.332 23C51.332 28.9895 55.7202 33.954 61.457 34.8542V26.4688H58.4102V23H61.457V20.3563C61.457 17.3488 63.2486 15.6875 65.9896 15.6875C67.3021 15.6875 68.6758 15.9219 68.6758 15.9219V18.875H67.1627C65.672 18.875 65.207 19.8001 65.207 20.75V23H68.5352L68.0031 26.4688H65.207V34.8542C70.9438 33.954 75.332 28.9895 75.332 23Z" fill="#1877F2"/>
<path d="M68.0031 26.4688L68.5352 23H65.207V20.75C65.207 19.801 65.672 18.875 67.1627 18.875H68.6758V15.9219C68.6758 15.9219 67.3026 15.6875 65.9896 15.6875C63.2486 15.6875 61.457 17.3488 61.457 20.3563V23H58.4102V26.4688H61.457V34.8542C62.6995 35.0486 63.9646 35.0486 65.207 34.8542V26.4688H68.0031Z" fill="white"/>
</g>
<rect x="3.16602" y="1.5" width="120.333" height="43" rx="7.5" stroke="#EAECF0"/>
</g>
<defs>
<filter id="filter0_d_5149_15448" x="0.666016" y="0" width="125.334" height="48" filterUnits="userSpaceOnUse" color-interpolation-filters="sRGB">
<feFlood flood-opacity="0" result="BackgroundImageFix"/>
<feColorMatrix in="SourceAlpha" type="matrix" values="0 0 0 0 0 0 0 0 0 0 0 0 0 0 0 0 0 0 127 0" result="hardAlpha"/>
<feOffset dy="1"/>
<feGaussianBlur stdDeviation="1"/>
<feColorMatrix type="matrix" values="0 0 0 0 0.0627451 0 0 0 0 0.0941176 0 0 0 0 0.156863 0 0 0 0.05 0"/>
<feBlend mode="normal" in2="BackgroundImageFix" result="effect1_dropShadow_5149_15448"/>
<feBlend mode="normal" in="SourceGraphic" in2="effect1_dropShadow_5149_15448" result="shape"/>
</filter>
<clipPath id="clip0_5149_15448">
<rect width="24" height="24" fill="white" transform="translate(51.332 11)"/>
</clipPath>
</defs>
</svg>
