<svg width="126" height="48" viewBox="0 0 126 48" fill="none" xmlns="http://www.w3.org/2000/svg">
<g filter="url(#filter0_d_5145_54236)">
<rect x="2" y="1" width="121.333" height="44" rx="8" fill="white"/>
<g clip-path="url(#clip0_5145_54236)">
<path d="M74.4323 23.2765C74.4323 22.4608 74.3661 21.6406 74.225 20.8381H62.9062V25.4591H69.388C69.119 26.9495 68.2548 28.2679 66.9893 29.1056V32.104H70.8563C73.1271 30.014 74.4323 26.9274 74.4323 23.2765Z" fill="#4285F4"/>
<path d="M62.9051 35.0008C66.1416 35.0008 68.871 33.9382 70.8596 32.1039L66.9926 29.1055C65.9167 29.8375 64.5278 30.252 62.9096 30.252C59.7789 30.252 57.1245 28.1399 56.1721 25.3003H52.1816V28.3912C54.2188 32.4434 58.3679 35.0008 62.9051 35.0008Z" fill="#34A853"/>
<path d="M56.1688 25.3002C55.6661 23.8099 55.6661 22.196 56.1688 20.7057V17.6147H52.1828C50.4807 21.0055 50.4807 25.0004 52.1828 28.3912L56.1688 25.3002Z" fill="#FBBC04"/>
<path d="M62.9051 15.7497C64.616 15.7232 66.2695 16.367 67.5085 17.5487L70.9345 14.1226C68.7651 12.0855 65.8858 10.9655 62.9051 11.0008C58.3679 11.0008 54.2188 13.5582 52.1816 17.6148L56.1677 20.7058C57.1157 17.8617 59.7745 15.7497 62.9051 15.7497Z" fill="#EA4335"/>
</g>
<rect x="2.5" y="1.5" width="120.333" height="43" rx="7.5" stroke="#EAECF0"/>
</g>
<defs>
<filter id="filter0_d_5145_54236" x="0" y="0" width="125.334" height="48" filterUnits="userSpaceOnUse" color-interpolation-filters="sRGB">
<feFlood flood-opacity="0" result="BackgroundImageFix"/>
<feColorMatrix in="SourceAlpha" type="matrix" values="0 0 0 0 0 0 0 0 0 0 0 0 0 0 0 0 0 0 127 0" result="hardAlpha"/>
<feOffset dy="1"/>
<feGaussianBlur stdDeviation="1"/>
<feColorMatrix type="matrix" values="0 0 0 0 0.0627451 0 0 0 0 0.0941176 0 0 0 0 0.156863 0 0 0 0.05 0"/>
<feBlend mode="normal" in2="BackgroundImageFix" result="effect1_dropShadow_5145_54236"/>
<feBlend mode="normal" in="SourceGraphic" in2="effect1_dropShadow_5145_54236" result="shape"/>
</filter>
<clipPath id="clip0_5145_54236">
<rect width="24" height="24" fill="white" transform="translate(50.666 11)"/>
</clipPath>
</defs>
</svg>
