<svg width="32" height="32" viewBox="0 0 32 32" fill="none" xmlns="http://www.w3.org/2000/svg">
<g id="user-01">
<g id="Solid">
<path fill-rule="evenodd" clip-rule="evenodd" d="M11.7151 19.3334C14.572 19.334 17.4289 19.334 20.2857 19.3334C21.2547 19.3332 21.9149 19.333 22.4914 19.4347C25.2515 19.9214 27.4125 22.0823 27.8991 24.8424C28.0008 25.419 28.0007 26.0792 28.0004 27.0481C28.0004 27.2592 28.0069 27.4718 27.97 27.6807C27.824 28.5087 27.1757 29.157 26.3477 29.303C26.1662 29.335 25.9749 29.334 25.8797 29.3335C19.2942 29.2983 12.7066 29.2983 6.12112 29.3335C6.02597 29.334 5.83469 29.335 5.65313 29.303C4.82511 29.157 4.17682 28.5087 4.03081 27.6807C3.99398 27.4718 4.00046 27.2593 4.00041 27.0481C4.0002 26.0792 4.00005 25.419 4.10171 24.8424C4.58839 22.0823 6.74936 19.9214 9.50944 19.4347C10.086 19.333 10.7462 19.3332 11.7151 19.3334Z" fill="#870064"/>
<path fill-rule="evenodd" clip-rule="evenodd" d="M8.6671 10.0001C8.6671 5.94999 11.9503 2.66675 16.0004 2.66675C20.0505 2.66675 23.3338 5.94999 23.3338 10.0001C23.3338 14.0502 20.0505 17.3334 16.0004 17.3334C11.9503 17.3334 8.6671 14.0502 8.6671 10.0001Z" fill="#870064"/>
</g>
</g>
</svg>
