<svg width="32" height="32" viewBox="0 0 32 32" fill="none" xmlns="http://www.w3.org/2000/svg">
<path d="M15.0971 29.4413C15.631 29.7417 16.2749 29.7249 16.8061 29.4197C20.1952 27.4726 26.028 23.038 28.3251 17.2856C31.7127 9.76086 23.7587 3.75412 18.2614 8.07438C17.6981 8.51704 16.9925 9.02252 16.4974 9.50335C16.2581 9.73576 15.8382 9.75956 15.5906 9.53601C14.9375 8.94624 13.9372 8.19987 13.2915 7.76307C8.60497 4.59231 0.0776339 8.77191 3.71509 17.6922C5.04202 21.6795 11.3444 27.3294 15.0971 29.4413Z" fill="url(#paint0_radial_4047_59095)"/>
<path d="M15.0971 29.4413C15.631 29.7417 16.2749 29.7249 16.8061 29.4197C20.1952 27.4726 26.028 23.038 28.3251 17.2856C31.7127 9.76086 23.7587 3.75412 18.2614 8.07438C17.6981 8.51704 16.9925 9.02252 16.4974 9.50335C16.2581 9.73576 15.8382 9.75956 15.5906 9.53601C14.9375 8.94624 13.9372 8.19987 13.2915 7.76307C8.60497 4.59231 0.0776339 8.77191 3.71509 17.6922C5.04202 21.6795 11.3444 27.3294 15.0971 29.4413Z" fill="url(#paint1_radial_4047_59095)"/>
<path d="M15.0971 29.4413C15.631 29.7417 16.2749 29.7249 16.8061 29.4197C20.1952 27.4726 26.028 23.038 28.3251 17.2856C31.7127 9.76086 23.7587 3.75412 18.2614 8.07438C17.6981 8.51704 16.9925 9.02252 16.4974 9.50335C16.2581 9.73576 15.8382 9.75956 15.5906 9.53601C14.9375 8.94624 13.9372 8.19987 13.2915 7.76307C8.60497 4.59231 0.0776339 8.77191 3.71509 17.6922C5.04202 21.6795 11.3444 27.3294 15.0971 29.4413Z" fill="url(#paint2_radial_4047_59095)"/>
<path d="M15.0971 29.4413C15.631 29.7417 16.2749 29.7249 16.8061 29.4197C20.1952 27.4726 26.028 23.038 28.3251 17.2856C31.7127 9.76086 23.7587 3.75412 18.2614 8.07438C17.6981 8.51704 16.9925 9.02252 16.4974 9.50335C16.2581 9.73576 15.8382 9.75956 15.5906 9.53601C14.9375 8.94624 13.9372 8.19987 13.2915 7.76307C8.60497 4.59231 0.0776339 8.77191 3.71509 17.6922C5.04202 21.6795 11.3444 27.3294 15.0971 29.4413Z" fill="url(#paint3_radial_4047_59095)"/>
<path d="M15.0971 29.4413C15.631 29.7417 16.2749 29.7249 16.8061 29.4197C20.1952 27.4726 26.028 23.038 28.3251 17.2856C31.7127 9.76086 23.7587 3.75412 18.2614 8.07438C17.6981 8.51704 16.9925 9.02252 16.4974 9.50335C16.2581 9.73576 15.8382 9.75956 15.5906 9.53601C14.9375 8.94624 13.9372 8.19987 13.2915 7.76307C8.60497 4.59231 0.0776339 8.77191 3.71509 17.6922C5.04202 21.6795 11.3444 27.3294 15.0971 29.4413Z" fill="url(#paint4_linear_4047_59095)"/>
<path d="M15.0971 29.4413C15.631 29.7417 16.2749 29.7249 16.8061 29.4197C20.1952 27.4726 26.028 23.038 28.3251 17.2856C31.7127 9.76086 23.7587 3.75412 18.2614 8.07438C17.6981 8.51704 16.9925 9.02252 16.4974 9.50335C16.2581 9.73576 15.8382 9.75956 15.5906 9.53601C14.9375 8.94624 13.9372 8.19987 13.2915 7.76307C8.60497 4.59231 0.0776339 8.77191 3.71509 17.6922C5.04202 21.6795 11.3444 27.3294 15.0971 29.4413Z" fill="url(#paint5_linear_4047_59095)"/>
<path d="M12.8743 27.9925V18.2695H3.93652C5.31406 21.4652 9.45269 25.5074 12.8743 27.9925Z" fill="url(#paint6_linear_4047_59095)"/>
<path d="M15.9282 9.8646C16.8165 10.6766 18.1917 10.4381 18.9536 9.50642C20.0296 8.19059 21.5373 6.86652 23.5193 6.74042C21.7949 6.40881 19.9165 6.77325 18.2609 8.07438C18.1186 8.18623 17.9671 8.30208 17.8123 8.42054C17.3545 8.77091 16.8669 9.14401 16.4969 9.50335C16.2576 9.73576 15.8377 9.75956 15.5901 9.53601C15.553 9.50251 15.5148 9.46851 15.4756 9.43408C15.5955 9.55569 15.7528 9.70428 15.9282 9.8646Z" fill="url(#paint7_linear_4047_59095)"/>
<g filter="url(#filter0_f_4047_59095)">
<ellipse cx="24.2364" cy="12.4865" rx="3.92869" ry="2.70323" transform="rotate(-44.1901 24.2364 12.4865)" fill="url(#paint8_radial_4047_59095)"/>
</g>
<g filter="url(#filter1_f_4047_59095)">
<ellipse cx="12.6702" cy="12.114" rx="3.92869" ry="2.70323" transform="rotate(-128.955 12.6702 12.114)" fill="url(#paint9_radial_4047_59095)" fill-opacity="0.5"/>
</g>
<path d="M4.77116 19.8203H27.0492C27.5425 19.0087 27.9749 18.1624 28.3252 17.2854C28.6906 16.4736 28.9241 15.6795 29.0429 14.9141H2.93359C3.06016 15.7799 3.31348 16.707 3.71511 17.692C3.9383 18.3626 4.30225 19.0803 4.77116 19.8203Z" fill="#FFE042"/>
<path d="M4.77116 19.8203H27.0492C27.5425 19.0087 27.9749 18.1624 28.3252 17.2854C28.6906 16.4736 28.9241 15.6795 29.0429 14.9141H2.93359C3.06016 15.7799 3.31348 16.707 3.71511 17.692C3.9383 18.3626 4.30225 19.0803 4.77116 19.8203Z" fill="url(#paint10_radial_4047_59095)"/>
<path d="M4.77116 19.8203H27.0492C27.5425 19.0087 27.9749 18.1624 28.3252 17.2854C28.6906 16.4736 28.9241 15.6795 29.0429 14.9141H2.93359C3.06016 15.7799 3.31348 16.707 3.71511 17.692C3.9383 18.3626 4.30225 19.0803 4.77116 19.8203Z" fill="url(#paint11_linear_4047_59095)"/>
<path d="M5.97461 18.2695L9.48354 19.5467L7.16657 25.9125C7.0577 26.2116 6.63848 26.2219 6.51506 25.9285L6.05952 24.8457C5.92544 24.527 5.55043 24.3872 5.24049 24.5405L4.13498 25.0872C3.85199 25.2272 3.54296 24.9504 3.65093 24.6538L5.97461 18.2695Z" fill="url(#paint12_linear_4047_59095)"/>
<path d="M5.97461 18.2695L9.48354 19.5467L7.16657 25.9125C7.0577 26.2116 6.63848 26.2219 6.51506 25.9285L6.05952 24.8457C5.92544 24.527 5.55043 24.3872 5.24049 24.5405L4.13498 25.0872C3.85199 25.2272 3.54296 24.9504 3.65093 24.6538L5.97461 18.2695Z" fill="url(#paint13_linear_4047_59095)"/>
<path d="M5.97461 18.2695L9.48354 19.5467L7.16657 25.9125C7.0577 26.2116 6.63848 26.2219 6.51506 25.9285L6.05952 24.8457C5.92544 24.527 5.55043 24.3872 5.24049 24.5405L4.13498 25.0872C3.85199 25.2272 3.54296 24.9504 3.65093 24.6538L5.97461 18.2695Z" fill="url(#paint14_radial_4047_59095)"/>
<path d="M5.97461 18.2695L9.48354 19.5467L7.16657 25.9125C7.0577 26.2116 6.63848 26.2219 6.51506 25.9285L6.05952 24.8457C5.92544 24.527 5.55043 24.3872 5.24049 24.5405L4.13498 25.0872C3.85199 25.2272 3.54296 24.9504 3.65093 24.6538L5.97461 18.2695Z" fill="url(#paint15_linear_4047_59095)"/>
<path d="M12.6201 18.2695L9.11118 19.5467L11.4282 25.9125C11.537 26.2116 11.9562 26.2219 12.0797 25.9285L12.5352 24.8457C12.6693 24.527 13.0443 24.3872 13.3542 24.5405L14.4597 25.0872C14.7427 25.2272 15.0518 24.9504 14.9438 24.6538L12.6201 18.2695Z" fill="url(#paint16_linear_4047_59095)"/>
<path d="M12.6201 18.2695L9.11118 19.5467L11.4282 25.9125C11.537 26.2116 11.9562 26.2219 12.0797 25.9285L12.5352 24.8457C12.6693 24.527 13.0443 24.3872 13.3542 24.5405L14.4597 25.0872C14.7427 25.2272 15.0518 24.9504 14.9438 24.6538L12.6201 18.2695Z" fill="url(#paint17_linear_4047_59095)"/>
<path d="M12.6201 18.2695L9.11118 19.5467L11.4282 25.9125C11.537 26.2116 11.9562 26.2219 12.0797 25.9285L12.5352 24.8457C12.6693 24.527 13.0443 24.3872 13.3542 24.5405L14.4597 25.0872C14.7427 25.2272 15.0518 24.9504 14.9438 24.6538L12.6201 18.2695Z" fill="url(#paint18_linear_4047_59095)"/>
<path d="M9.09766 18.6254L9.29766 18.7125L9.49766 18.6254V15.8126L9.29766 15.7168L9.09766 15.8126V18.6254Z" fill="url(#paint19_linear_4047_59095)"/>
<path d="M1.80469 15.2079C1.80778 13.8587 3.41337 12.8764 5.07427 13.4618L7.08159 14.3561C7.29107 14.4494 7.51406 14.5088 7.7422 14.5321V19.5555L1.80469 19.2274V15.2079Z" fill="url(#paint20_linear_4047_59095)"/>
<path d="M1.80469 15.2079C1.80778 13.8587 3.41337 12.8764 5.07427 13.4618L7.08159 14.3561C7.29107 14.4494 7.51406 14.5088 7.7422 14.5321V19.5555L1.80469 19.2274V15.2079Z" fill="url(#paint21_linear_4047_59095)"/>
<path d="M1.80469 15.2079C1.80778 13.8587 3.41337 12.8764 5.07427 13.4618L7.08159 14.3561C7.29107 14.4494 7.51406 14.5088 7.7422 14.5321V19.5555L1.80469 19.2274V15.2079Z" fill="url(#paint22_radial_4047_59095)"/>
<path d="M2.2041 19.2328C2.2041 17.9859 3.95625 17.4035 5.08577 17.9624L7.69807 19.2358L5.08577 20.5093C3.95625 21.0682 2.2041 20.4858 2.2041 19.2389L2.20411 19.2358L2.2041 19.2328Z" fill="url(#paint23_radial_4047_59095)"/>
<path fill-rule="evenodd" clip-rule="evenodd" d="M2.20469 19.2329C2.20469 17.986 3.95683 17.4036 5.08635 17.9625L7.69866 19.2359L5.08635 20.5094C3.95683 21.0683 2.20469 20.4859 2.20469 19.2389L2.20469 19.2359L2.20469 19.2329ZM1.80469 19.2364V19.2354L1.80469 19.2334C1.80469 18.3907 2.40168 17.8177 3.07344 17.5491C3.74357 17.2811 4.5832 17.2677 5.26265 17.6034C5.26302 17.6036 5.26339 17.6038 5.26376 17.604L7.87393 18.8764C8.01143 18.9434 8.09866 19.083 8.09866 19.2359C8.09866 19.3889 8.01143 19.5285 7.87393 19.5955L5.26376 20.8679C5.2634 20.868 5.26304 20.8682 5.26268 20.8684C4.58322 21.2042 3.74357 21.1907 3.07344 20.9228C2.40168 20.6542 1.80469 20.0817 1.80469 19.2389L1.80469 19.2364Z" fill="url(#paint24_linear_4047_59095)"/>
<path fill-rule="evenodd" clip-rule="evenodd" d="M2.20469 19.2329C2.20469 17.986 3.95683 17.4036 5.08635 17.9625L7.69866 19.2359L5.08635 20.5094C3.95683 21.0683 2.20469 20.4859 2.20469 19.2389L2.20469 19.2359L2.20469 19.2329ZM1.80469 19.2364V19.2354L1.80469 19.2334C1.80469 18.3907 2.40168 17.8177 3.07344 17.5491C3.74357 17.2811 4.5832 17.2677 5.26265 17.6034C5.26302 17.6036 5.26339 17.6038 5.26376 17.604L7.87393 18.8764C8.01143 18.9434 8.09866 19.083 8.09866 19.2359C8.09866 19.3889 8.01143 19.5285 7.87393 19.5955L5.26376 20.8679C5.2634 20.868 5.26304 20.8682 5.26268 20.8684C4.58322 21.2042 3.74357 21.1907 3.07344 20.9228C2.40168 20.6542 1.80469 20.0817 1.80469 19.2389L1.80469 19.2364Z" fill="url(#paint25_radial_4047_59095)"/>
<path fill-rule="evenodd" clip-rule="evenodd" d="M2.20469 19.2329C2.20469 17.986 3.95683 17.4036 5.08635 17.9625L7.69866 19.2359L5.08635 20.5094C3.95683 21.0683 2.20469 20.4859 2.20469 19.2389L2.20469 19.2359L2.20469 19.2329ZM1.80469 19.2364V19.2354L1.80469 19.2334C1.80469 18.3907 2.40168 17.8177 3.07344 17.5491C3.74357 17.2811 4.5832 17.2677 5.26265 17.6034C5.26302 17.6036 5.26339 17.6038 5.26376 17.604L7.87393 18.8764C8.01143 18.9434 8.09866 19.083 8.09866 19.2359C8.09866 19.3889 8.01143 19.5285 7.87393 19.5955L5.26376 20.8679C5.2634 20.868 5.26304 20.8682 5.26268 20.8684C4.58322 21.2042 3.74357 21.1907 3.07344 20.9228C2.40168 20.6542 1.80469 20.0817 1.80469 19.2389L1.80469 19.2364Z" fill="url(#paint26_linear_4047_59095)"/>
<path fill-rule="evenodd" clip-rule="evenodd" d="M2.20469 19.2329C2.20469 17.986 3.95683 17.4036 5.08635 17.9625L7.69866 19.2359L5.08635 20.5094C3.95683 21.0683 2.20469 20.4859 2.20469 19.2389L2.20469 19.2359L2.20469 19.2329ZM1.80469 19.2364V19.2354L1.80469 19.2334C1.80469 18.3907 2.40168 17.8177 3.07344 17.5491C3.74357 17.2811 4.5832 17.2677 5.26265 17.6034C5.26302 17.6036 5.26339 17.6038 5.26376 17.604L7.87393 18.8764C8.01143 18.9434 8.09866 19.083 8.09866 19.2359C8.09866 19.3889 8.01143 19.5285 7.87393 19.5955L5.26376 20.8679C5.2634 20.868 5.26304 20.8682 5.26268 20.8684C4.58322 21.2042 3.74357 21.1907 3.07344 20.9228C2.40168 20.6542 1.80469 20.0817 1.80469 19.2389L1.80469 19.2364Z" fill="url(#paint27_radial_4047_59095)"/>
<path fill-rule="evenodd" clip-rule="evenodd" d="M2.20469 19.2329C2.20469 17.986 3.95683 17.4036 5.08635 17.9625L7.69866 19.2359L5.08635 20.5094C3.95683 21.0683 2.20469 20.4859 2.20469 19.2389L2.20469 19.2359L2.20469 19.2329ZM1.80469 19.2364V19.2354L1.80469 19.2334C1.80469 18.3907 2.40168 17.8177 3.07344 17.5491C3.74357 17.2811 4.5832 17.2677 5.26265 17.6034C5.26302 17.6036 5.26339 17.6038 5.26376 17.604L7.87393 18.8764C8.01143 18.9434 8.09866 19.083 8.09866 19.2359C8.09866 19.3889 8.01143 19.5285 7.87393 19.5955L5.26376 20.8679C5.2634 20.868 5.26304 20.8682 5.26268 20.8684C4.58322 21.2042 3.74357 21.1907 3.07344 20.9228C2.40168 20.6542 1.80469 20.0817 1.80469 19.2389L1.80469 19.2364Z" fill="url(#paint28_radial_4047_59095)"/>
<path fill-rule="evenodd" clip-rule="evenodd" d="M2.20469 19.2329C2.20469 17.986 3.95683 17.4036 5.08635 17.9625L7.69866 19.2359L5.08635 20.5094C3.95683 21.0683 2.20469 20.4859 2.20469 19.2389L2.20469 19.2359L2.20469 19.2329ZM1.80469 19.2364V19.2354L1.80469 19.2334C1.80469 18.3907 2.40168 17.8177 3.07344 17.5491C3.74357 17.2811 4.5832 17.2677 5.26265 17.6034C5.26302 17.6036 5.26339 17.6038 5.26376 17.604L7.87393 18.8764C8.01143 18.9434 8.09866 19.083 8.09866 19.2359C8.09866 19.3889 8.01143 19.5285 7.87393 19.5955L5.26376 20.8679C5.2634 20.868 5.26304 20.8682 5.26268 20.8684C4.58322 21.2042 3.74357 21.1907 3.07344 20.9228C2.40168 20.6542 1.80469 20.0817 1.80469 19.2389L1.80469 19.2364Z" fill="url(#paint29_radial_4047_59095)"/>
<path fill-rule="evenodd" clip-rule="evenodd" d="M2.20469 19.2329C2.20469 17.986 3.95683 17.4036 5.08635 17.9625L7.69866 19.2359L5.08635 20.5094C3.95683 21.0683 2.20469 20.4859 2.20469 19.2389L2.20469 19.2359L2.20469 19.2329ZM1.80469 19.2364V19.2354L1.80469 19.2334C1.80469 18.3907 2.40168 17.8177 3.07344 17.5491C3.74357 17.2811 4.5832 17.2677 5.26265 17.6034C5.26302 17.6036 5.26339 17.6038 5.26376 17.604L7.87393 18.8764C8.01143 18.9434 8.09866 19.083 8.09866 19.2359C8.09866 19.3889 8.01143 19.5285 7.87393 19.5955L5.26376 20.8679C5.2634 20.868 5.26304 20.8682 5.26268 20.8684C4.58322 21.2042 3.74357 21.1907 3.07344 20.9228C2.40168 20.6542 1.80469 20.0817 1.80469 19.2389L1.80469 19.2364Z" fill="url(#paint30_radial_4047_59095)"/>
<path fill-rule="evenodd" clip-rule="evenodd" d="M2.20469 19.2329C2.20469 17.986 3.95683 17.4036 5.08635 17.9625L7.69866 19.2359L5.08635 20.5094C3.95683 21.0683 2.20469 20.4859 2.20469 19.2389L2.20469 19.2359L2.20469 19.2329ZM1.80469 19.2364V19.2354L1.80469 19.2334C1.80469 18.3907 2.40168 17.8177 3.07344 17.5491C3.74357 17.2811 4.5832 17.2677 5.26265 17.6034C5.26302 17.6036 5.26339 17.6038 5.26376 17.604L7.87393 18.8764C8.01143 18.9434 8.09866 19.083 8.09866 19.2359C8.09866 19.3889 8.01143 19.5285 7.87393 19.5955L5.26376 20.8679C5.2634 20.868 5.26304 20.8682 5.26268 20.8684C4.58322 21.2042 3.74357 21.1907 3.07344 20.9228C2.40168 20.6542 1.80469 20.0817 1.80469 19.2389L1.80469 19.2364Z" fill="url(#paint31_radial_4047_59095)"/>
<g filter="url(#filter2_f_4047_59095)">
<ellipse cx="4.26106" cy="18.862" rx="1.11019" ry="0.758512" transform="rotate(21.4867 4.26106 18.862)" fill="#B23A28"/>
</g>
<path d="M16.9639 15.2079C16.9608 13.8587 15.3552 12.8764 13.6943 13.4618L11.687 14.3561C11.4775 14.4494 11.2545 14.5088 11.0264 14.5321V19.5555L16.9639 19.2274V15.2079Z" fill="url(#paint32_linear_4047_59095)"/>
<path d="M16.9639 15.2079C16.9608 13.8587 15.3552 12.8764 13.6943 13.4618L11.687 14.3561C11.4775 14.4494 11.2545 14.5088 11.0264 14.5321V19.5555L16.9639 19.2274V15.2079Z" fill="url(#paint33_linear_4047_59095)"/>
<path d="M16.9639 15.2079C16.9608 13.8587 15.3552 12.8764 13.6943 13.4618L11.687 14.3561C11.4775 14.4494 11.2545 14.5088 11.0264 14.5321V19.5555L16.9639 19.2274V15.2079Z" fill="url(#paint34_radial_4047_59095)"/>
<path d="M16.9639 15.2079C16.9608 13.8587 15.3552 12.8764 13.6943 13.4618L11.687 14.3561C11.4775 14.4494 11.2545 14.5088 11.0264 14.5321V19.5555L16.9639 19.2274V15.2079Z" fill="url(#paint35_linear_4047_59095)"/>
<path d="M16.5635 19.2328C16.5635 17.9859 14.8113 17.4035 13.6818 17.9624L11.0695 19.2358L13.6818 20.5093C14.8113 21.0682 16.5635 20.4858 16.5635 19.2389L16.5635 19.2358L16.5635 19.2328Z" fill="url(#paint36_radial_4047_59095)"/>
<path fill-rule="evenodd" clip-rule="evenodd" d="M16.5639 19.2329C16.5639 17.986 14.8117 17.4036 13.6822 17.9625L11.0699 19.2359L13.6822 20.5094C14.8117 21.0683 16.5639 20.4859 16.5639 19.2389L16.5639 19.2359L16.5639 19.2329ZM16.9639 19.2364V19.2354L16.9639 19.2334C16.9639 18.3907 16.3669 17.8177 15.6951 17.5491C15.025 17.2811 14.1854 17.2677 13.5059 17.6034C13.5055 17.6036 13.5052 17.6038 13.5048 17.604L10.8946 18.8764C10.7571 18.9434 10.6699 19.083 10.6699 19.2359C10.6699 19.3889 10.7571 19.5285 10.8946 19.5955L13.5048 20.8679C13.5052 20.868 13.5055 20.8682 13.5059 20.8684C14.1853 21.2042 15.025 21.1907 15.6951 20.9228C16.3669 20.6542 16.9639 20.0817 16.9639 19.2389L16.9639 19.2364Z" fill="url(#paint37_linear_4047_59095)"/>
<path fill-rule="evenodd" clip-rule="evenodd" d="M16.5639 19.2329C16.5639 17.986 14.8117 17.4036 13.6822 17.9625L11.0699 19.2359L13.6822 20.5094C14.8117 21.0683 16.5639 20.4859 16.5639 19.2389L16.5639 19.2359L16.5639 19.2329ZM16.9639 19.2364V19.2354L16.9639 19.2334C16.9639 18.3907 16.3669 17.8177 15.6951 17.5491C15.025 17.2811 14.1854 17.2677 13.5059 17.6034C13.5055 17.6036 13.5052 17.6038 13.5048 17.604L10.8946 18.8764C10.7571 18.9434 10.6699 19.083 10.6699 19.2359C10.6699 19.3889 10.7571 19.5285 10.8946 19.5955L13.5048 20.8679C13.5052 20.868 13.5055 20.8682 13.5059 20.8684C14.1853 21.2042 15.025 21.1907 15.6951 20.9228C16.3669 20.6542 16.9639 20.0817 16.9639 19.2389L16.9639 19.2364Z" fill="url(#paint38_radial_4047_59095)"/>
<path fill-rule="evenodd" clip-rule="evenodd" d="M16.5639 19.2329C16.5639 17.986 14.8117 17.4036 13.6822 17.9625L11.0699 19.2359L13.6822 20.5094C14.8117 21.0683 16.5639 20.4859 16.5639 19.2389L16.5639 19.2359L16.5639 19.2329ZM16.9639 19.2364V19.2354L16.9639 19.2334C16.9639 18.3907 16.3669 17.8177 15.6951 17.5491C15.025 17.2811 14.1854 17.2677 13.5059 17.6034C13.5055 17.6036 13.5052 17.6038 13.5048 17.604L10.8946 18.8764C10.7571 18.9434 10.6699 19.083 10.6699 19.2359C10.6699 19.3889 10.7571 19.5285 10.8946 19.5955L13.5048 20.8679C13.5052 20.868 13.5055 20.8682 13.5059 20.8684C14.1853 21.2042 15.025 21.1907 15.6951 20.9228C16.3669 20.6542 16.9639 20.0817 16.9639 19.2389L16.9639 19.2364Z" fill="url(#paint39_linear_4047_59095)"/>
<path fill-rule="evenodd" clip-rule="evenodd" d="M16.5639 19.2329C16.5639 17.986 14.8117 17.4036 13.6822 17.9625L11.0699 19.2359L13.6822 20.5094C14.8117 21.0683 16.5639 20.4859 16.5639 19.2389L16.5639 19.2359L16.5639 19.2329ZM16.9639 19.2364V19.2354L16.9639 19.2334C16.9639 18.3907 16.3669 17.8177 15.6951 17.5491C15.025 17.2811 14.1854 17.2677 13.5059 17.6034C13.5055 17.6036 13.5052 17.6038 13.5048 17.604L10.8946 18.8764C10.7571 18.9434 10.6699 19.083 10.6699 19.2359C10.6699 19.3889 10.7571 19.5285 10.8946 19.5955L13.5048 20.8679C13.5052 20.868 13.5055 20.8682 13.5059 20.8684C14.1853 21.2042 15.025 21.1907 15.6951 20.9228C16.3669 20.6542 16.9639 20.0817 16.9639 19.2389L16.9639 19.2364Z" fill="url(#paint40_radial_4047_59095)"/>
<path fill-rule="evenodd" clip-rule="evenodd" d="M16.5639 19.2329C16.5639 17.986 14.8117 17.4036 13.6822 17.9625L11.0699 19.2359L13.6822 20.5094C14.8117 21.0683 16.5639 20.4859 16.5639 19.2389L16.5639 19.2359L16.5639 19.2329ZM16.9639 19.2364V19.2354L16.9639 19.2334C16.9639 18.3907 16.3669 17.8177 15.6951 17.5491C15.025 17.2811 14.1854 17.2677 13.5059 17.6034C13.5055 17.6036 13.5052 17.6038 13.5048 17.604L10.8946 18.8764C10.7571 18.9434 10.6699 19.083 10.6699 19.2359C10.6699 19.3889 10.7571 19.5285 10.8946 19.5955L13.5048 20.8679C13.5052 20.868 13.5055 20.8682 13.5059 20.8684C14.1853 21.2042 15.025 21.1907 15.6951 20.9228C16.3669 20.6542 16.9639 20.0817 16.9639 19.2389L16.9639 19.2364Z" fill="url(#paint41_radial_4047_59095)"/>
<path fill-rule="evenodd" clip-rule="evenodd" d="M16.5639 19.2329C16.5639 17.986 14.8117 17.4036 13.6822 17.9625L11.0699 19.2359L13.6822 20.5094C14.8117 21.0683 16.5639 20.4859 16.5639 19.2389L16.5639 19.2359L16.5639 19.2329ZM16.9639 19.2364V19.2354L16.9639 19.2334C16.9639 18.3907 16.3669 17.8177 15.6951 17.5491C15.025 17.2811 14.1854 17.2677 13.5059 17.6034C13.5055 17.6036 13.5052 17.6038 13.5048 17.604L10.8946 18.8764C10.7571 18.9434 10.6699 19.083 10.6699 19.2359C10.6699 19.3889 10.7571 19.5285 10.8946 19.5955L13.5048 20.8679C13.5052 20.868 13.5055 20.8682 13.5059 20.8684C14.1853 21.2042 15.025 21.1907 15.6951 20.9228C16.3669 20.6542 16.9639 20.0817 16.9639 19.2389L16.9639 19.2364Z" fill="url(#paint42_radial_4047_59095)"/>
<path fill-rule="evenodd" clip-rule="evenodd" d="M16.5639 19.2329C16.5639 17.986 14.8117 17.4036 13.6822 17.9625L11.0699 19.2359L13.6822 20.5094C14.8117 21.0683 16.5639 20.4859 16.5639 19.2389L16.5639 19.2359L16.5639 19.2329ZM16.9639 19.2364V19.2354L16.9639 19.2334C16.9639 18.3907 16.3669 17.8177 15.6951 17.5491C15.025 17.2811 14.1854 17.2677 13.5059 17.6034C13.5055 17.6036 13.5052 17.6038 13.5048 17.604L10.8946 18.8764C10.7571 18.9434 10.6699 19.083 10.6699 19.2359C10.6699 19.3889 10.7571 19.5285 10.8946 19.5955L13.5048 20.8679C13.5052 20.868 13.5055 20.8682 13.5059 20.8684C14.1853 21.2042 15.025 21.1907 15.6951 20.9228C16.3669 20.6542 16.9639 20.0817 16.9639 19.2389L16.9639 19.2364Z" fill="url(#paint43_radial_4047_59095)"/>
<path fill-rule="evenodd" clip-rule="evenodd" d="M16.5639 19.2329C16.5639 17.986 14.8117 17.4036 13.6822 17.9625L11.0699 19.2359L13.6822 20.5094C14.8117 21.0683 16.5639 20.4859 16.5639 19.2389L16.5639 19.2359L16.5639 19.2329ZM16.9639 19.2364V19.2354L16.9639 19.2334C16.9639 18.3907 16.3669 17.8177 15.6951 17.5491C15.025 17.2811 14.1854 17.2677 13.5059 17.6034C13.5055 17.6036 13.5052 17.6038 13.5048 17.604L10.8946 18.8764C10.7571 18.9434 10.6699 19.083 10.6699 19.2359C10.6699 19.3889 10.7571 19.5285 10.8946 19.5955L13.5048 20.8679C13.5052 20.868 13.5055 20.8682 13.5059 20.8684C14.1853 21.2042 15.025 21.1907 15.6951 20.9228C16.3669 20.6542 16.9639 20.0817 16.9639 19.2389L16.9639 19.2364Z" fill="url(#paint44_radial_4047_59095)"/>
<g filter="url(#filter3_f_4047_59095)">
<ellipse cx="1.11019" cy="0.758512" rx="1.11019" ry="0.758512" transform="matrix(-0.930503 0.366285 0.366285 0.930503 15.2617 17.7495)" fill="#B23A28"/>
</g>
<rect x="7.40723" y="13.6328" width="3.78125" height="7" rx="1" fill="url(#paint45_linear_4047_59095)"/>
<rect x="7.40723" y="13.6328" width="3.78125" height="7" rx="1" fill="url(#paint46_linear_4047_59095)"/>
<rect x="7.40723" y="13.6328" width="3.78125" height="7" rx="1" fill="url(#paint47_linear_4047_59095)"/>
<rect x="7.40723" y="13.6328" width="3.78125" height="7" rx="1" fill="url(#paint48_linear_4047_59095)"/>
<g filter="url(#filter4_f_4047_59095)">
<path d="M7.99902 19.6611C7.99902 19.385 8.22288 19.1611 8.49902 19.1611H10.1129C10.3891 19.1611 10.6129 19.385 10.6129 19.6611V19.6753C10.6129 19.9515 10.3891 20.1753 10.1129 20.1753H8.49902C8.22288 20.1753 7.99902 19.9515 7.99902 19.6753V19.6611Z" fill="#FFAB44"/>
</g>
<g filter="url(#filter5_f_4047_59095)">
<circle cx="10.3478" cy="19.2468" r="0.497243" fill="#FFF58C"/>
</g>
<g filter="url(#filter6_f_4047_59095)">
<circle cx="10.4364" cy="14.329" r="0.409037" fill="#FFF58F"/>
</g>
<defs>
<filter id="filter0_f_4047_59095" x="19.3467" y="7.63135" width="9.7793" height="9.71045" filterUnits="userSpaceOnUse" color-interpolation-filters="sRGB">
<feFlood flood-opacity="0" result="BackgroundImageFix"/>
<feBlend mode="normal" in="SourceGraphic" in2="BackgroundImageFix" result="shape"/>
<feGaussianBlur stdDeviation="0.75" result="effect1_foregroundBlur_4047_59095"/>
</filter>
<filter id="filter1_f_4047_59095" x="7.92676" y="7.11719" width="9.4873" height="9.99365" filterUnits="userSpaceOnUse" color-interpolation-filters="sRGB">
<feFlood flood-opacity="0" result="BackgroundImageFix"/>
<feBlend mode="normal" in="SourceGraphic" in2="BackgroundImageFix" result="shape"/>
<feGaussianBlur stdDeviation="0.75" result="effect1_foregroundBlur_4047_59095"/>
</filter>
<filter id="filter2_f_4047_59095" x="2.19141" y="17.0474" width="4.13965" height="3.62939" filterUnits="userSpaceOnUse" color-interpolation-filters="sRGB">
<feFlood flood-opacity="0" result="BackgroundImageFix"/>
<feBlend mode="normal" in="SourceGraphic" in2="BackgroundImageFix" result="shape"/>
<feGaussianBlur stdDeviation="0.5" result="effect1_foregroundBlur_4047_59095"/>
</filter>
<filter id="filter3_f_4047_59095" x="12.4365" y="17.0474" width="4.13965" height="3.62939" filterUnits="userSpaceOnUse" color-interpolation-filters="sRGB">
<feFlood flood-opacity="0" result="BackgroundImageFix"/>
<feBlend mode="normal" in="SourceGraphic" in2="BackgroundImageFix" result="shape"/>
<feGaussianBlur stdDeviation="0.5" result="effect1_foregroundBlur_4047_59095"/>
</filter>
<filter id="filter4_f_4047_59095" x="7.49902" y="18.6611" width="3.61426" height="2.01416" filterUnits="userSpaceOnUse" color-interpolation-filters="sRGB">
<feFlood flood-opacity="0" result="BackgroundImageFix"/>
<feBlend mode="normal" in="SourceGraphic" in2="BackgroundImageFix" result="shape"/>
<feGaussianBlur stdDeviation="0.25" result="effect1_foregroundBlur_4047_59095"/>
</filter>
<filter id="filter5_f_4047_59095" x="8.85059" y="17.7495" width="2.99414" height="2.99463" filterUnits="userSpaceOnUse" color-interpolation-filters="sRGB">
<feFlood flood-opacity="0" result="BackgroundImageFix"/>
<feBlend mode="normal" in="SourceGraphic" in2="BackgroundImageFix" result="shape"/>
<feGaussianBlur stdDeviation="0.5" result="effect1_foregroundBlur_4047_59095"/>
</filter>
<filter id="filter6_f_4047_59095" x="9.52734" y="13.4199" width="1.81836" height="1.81787" filterUnits="userSpaceOnUse" color-interpolation-filters="sRGB">
<feFlood flood-opacity="0" result="BackgroundImageFix"/>
<feBlend mode="normal" in="SourceGraphic" in2="BackgroundImageFix" result="shape"/>
<feGaussianBlur stdDeviation="0.25" result="effect1_foregroundBlur_4047_59095"/>
</filter>
<radialGradient id="paint0_radial_4047_59095" cx="0" cy="0" r="1" gradientUnits="userSpaceOnUse" gradientTransform="translate(18.6555 29.258) rotate(-90) scale(30.75 52.275)">
<stop stop-color="#F12E52"/>
<stop offset="0.596003" stop-color="#FF3B79"/>
<stop offset="1" stop-color="#FF4EC6"/>
</radialGradient>
<radialGradient id="paint1_radial_4047_59095" cx="0" cy="0" r="1" gradientUnits="userSpaceOnUse" gradientTransform="translate(22.5136 12.6308) rotate(142.986) scale(24.7537 46.3661)">
<stop offset="0.483055" stop-color="#B91D43" stop-opacity="0"/>
<stop offset="0.833898" stop-color="#B91D43"/>
</radialGradient>
<radialGradient id="paint2_radial_4047_59095" cx="0" cy="0" r="1" gradientUnits="userSpaceOnUse" gradientTransform="translate(19.6555 18.6955) rotate(-158.663) scale(21.4717 30.3533)">
<stop offset="0.40984" stop-color="#B91D43" stop-opacity="0"/>
<stop offset="0.833898" stop-color="#B91D43"/>
</radialGradient>
<radialGradient id="paint3_radial_4047_59095" cx="0" cy="0" r="1" gradientUnits="userSpaceOnUse" gradientTransform="translate(15.468 14.9455) rotate(90) scale(18.6875)">
<stop offset="0.671096" stop-color="#FF7AF2" stop-opacity="0"/>
<stop offset="0.933555" stop-color="#FFBCE6"/>
</radialGradient>
<linearGradient id="paint4_linear_4047_59095" x1="17.5305" y1="17.133" x2="25.093" y2="26.133" gradientUnits="userSpaceOnUse">
<stop offset="0.694491" stop-color="#FF7AF2" stop-opacity="0"/>
<stop offset="0.933555" stop-color="#FFBCE6"/>
</linearGradient>
<linearGradient id="paint5_linear_4047_59095" x1="16.593" y1="17.508" x2="7.71799" y2="27.508" gradientUnits="userSpaceOnUse">
<stop offset="0.694491" stop-color="#FF7AF2" stop-opacity="0"/>
<stop offset="0.933555" stop-color="#FFBCE6"/>
</linearGradient>
<linearGradient id="paint6_linear_4047_59095" x1="7.78052" y1="23.789" x2="8.74999" y2="21.4935" gradientUnits="userSpaceOnUse">
<stop offset="0.151052" stop-color="#B91D43" stop-opacity="0"/>
<stop offset="1" stop-color="#B91D43"/>
</linearGradient>
<linearGradient id="paint7_linear_4047_59095" x1="19.4932" y1="10.7268" x2="16.8413" y2="7.81311" gradientUnits="userSpaceOnUse">
<stop offset="0.40984" stop-color="#C12372" stop-opacity="0"/>
<stop offset="0.833898" stop-color="#B5286E"/>
</linearGradient>
<radialGradient id="paint8_radial_4047_59095" cx="0" cy="0" r="1" gradientUnits="userSpaceOnUse" gradientTransform="translate(28.1903 13.3177) rotate(-176.775) scale(5.80989 3.9231)">
<stop stop-color="#FF93BA"/>
<stop offset="1" stop-color="#FF73A6" stop-opacity="0"/>
</radialGradient>
<radialGradient id="paint9_radial_4047_59095" cx="0" cy="0" r="1" gradientUnits="userSpaceOnUse" gradientTransform="translate(14.9894 12.8441) rotate(-178.3) scale(8.36269 5.64687)">
<stop stop-color="#FF93BA"/>
<stop offset="1" stop-color="#FF73A6" stop-opacity="0"/>
</radialGradient>
<radialGradient id="paint10_radial_4047_59095" cx="0" cy="0" r="1" gradientUnits="userSpaceOnUse" gradientTransform="translate(16.1555 17.7578) scale(7 8.36441)">
<stop stop-color="#D9810E"/>
<stop offset="0.322917" stop-color="#FFA022"/>
<stop offset="1" stop-color="#FFA022" stop-opacity="0"/>
</radialGradient>
<linearGradient id="paint11_linear_4047_59095" x1="30.218" y1="19.1953" x2="25.8743" y2="17.1016" gradientUnits="userSpaceOnUse">
<stop stop-color="#FFA630"/>
<stop offset="1" stop-color="#FFA022" stop-opacity="0"/>
</linearGradient>
<linearGradient id="paint12_linear_4047_59095" x1="7.87384" y1="27.6953" x2="5.40509" y2="18.9453" gradientUnits="userSpaceOnUse">
<stop stop-color="#F8EC1D"/>
<stop offset="0.568974" stop-color="#F89C20"/>
<stop offset="0.848958" stop-color="#C13A24"/>
</linearGradient>
<linearGradient id="paint13_linear_4047_59095" x1="3.73322" y1="23.1953" x2="4.42072" y2="23.4218" gradientUnits="userSpaceOnUse">
<stop stop-color="#D06400"/>
<stop offset="1" stop-color="#D06400" stop-opacity="0"/>
</linearGradient>
<radialGradient id="paint14_radial_4047_59095" cx="0" cy="0" r="1" gradientUnits="userSpaceOnUse" gradientTransform="translate(3.68634 29.7421) rotate(-67.6363) scale(5.91352 3.42197)">
<stop offset="0.717917" stop-color="#D06400"/>
<stop offset="0.974296" stop-color="#D06400" stop-opacity="0"/>
</radialGradient>
<linearGradient id="paint15_linear_4047_59095" x1="6.98322" y1="25.8281" x2="7.4129" y2="25.9843" gradientUnits="userSpaceOnUse">
<stop stop-color="#FFC42D" stop-opacity="0"/>
<stop offset="0.447917" stop-color="#FFC42D"/>
</linearGradient>
<linearGradient id="paint16_linear_4047_59095" x1="11.4984" y1="28.1015" x2="12.6546" y2="18.6015" gradientUnits="userSpaceOnUse">
<stop offset="0.140625" stop-color="#F8EC1D"/>
<stop offset="0.625" stop-color="#F89C20"/>
<stop offset="0.848958" stop-color="#C13A24"/>
</linearGradient>
<linearGradient id="paint17_linear_4047_59095" x1="10.4828" y1="23.5546" x2="10.7328" y2="23.4687" gradientUnits="userSpaceOnUse">
<stop stop-color="#D06400"/>
<stop offset="1" stop-color="#D06400" stop-opacity="0"/>
</linearGradient>
<linearGradient id="paint18_linear_4047_59095" x1="14.6703" y1="24.3984" x2="14.9984" y2="24.2734" gradientUnits="userSpaceOnUse">
<stop stop-color="#FFE601" stop-opacity="0"/>
<stop offset="1" stop-color="#FFF101"/>
</linearGradient>
<linearGradient id="paint19_linear_4047_59095" x1="1.20463" y1="17.2187" x2="9.50066" y2="17.2187" gradientUnits="userSpaceOnUse">
<stop stop-color="#ED1C26"/>
<stop offset="0.456" stop-color="#ED1452"/>
<stop offset="1" stop-color="#EC098C"/>
</linearGradient>
<linearGradient id="paint20_linear_4047_59095" x1="3.83595" y1="15.976" x2="0.976578" y2="15.976" gradientUnits="userSpaceOnUse">
<stop stop-color="#FFEA3F"/>
<stop offset="0.911458" stop-color="#A2831C"/>
</linearGradient>
<linearGradient id="paint21_linear_4047_59095" x1="8.53043" y1="16.083" x2="6.71793" y2="16.083" gradientUnits="userSpaceOnUse">
<stop offset="0.255208" stop-color="#EB8D10"/>
<stop offset="1" stop-color="#FFA022" stop-opacity="0"/>
</linearGradient>
<radialGradient id="paint22_radial_4047_59095" cx="0" cy="0" r="1" gradientUnits="userSpaceOnUse" gradientTransform="translate(5.2422 18.9291) rotate(-79.1359) scale(1.57511 2.80146)">
<stop stop-color="#FFF45A"/>
<stop offset="1" stop-color="#FFF45A" stop-opacity="0"/>
</radialGradient>
<radialGradient id="paint23_radial_4047_59095" cx="0" cy="0" r="1" gradientUnits="userSpaceOnUse" gradientTransform="translate(3.39411 21.8672) rotate(-72.2065) scale(4.19275 10.9917)">
<stop offset="0.0192045" stop-color="#FC8306"/>
<stop offset="0.217544" stop-color="#F78E13"/>
<stop offset="0.817108" stop-color="#B23A28"/>
</radialGradient>
<linearGradient id="paint24_linear_4047_59095" x1="4.69158" y1="18.7423" x2="8.91033" y2="18.7423" gradientUnits="userSpaceOnUse">
<stop stop-color="#F9AB4E"/>
<stop offset="1" stop-color="#F89B4C"/>
</linearGradient>
<radialGradient id="paint25_radial_4047_59095" cx="0" cy="0" r="1" gradientUnits="userSpaceOnUse" gradientTransform="translate(6.19158 17.883) rotate(103.422) scale(4.24083 9.22084)">
<stop offset="0.838542" stop-color="#F48629" stop-opacity="0"/>
<stop offset="1" stop-color="#F48629"/>
</radialGradient>
<linearGradient id="paint26_linear_4047_59095" x1="4.2072" y1="21.6173" x2="8.59783" y2="19.6955" gradientUnits="userSpaceOnUse">
<stop offset="0.64551" stop-color="#F48629" stop-opacity="0"/>
<stop offset="1" stop-color="#F48629"/>
</linearGradient>
<radialGradient id="paint27_radial_4047_59095" cx="0" cy="0" r="1" gradientUnits="userSpaceOnUse" gradientTransform="translate(3.59783 19.633) rotate(106.504) scale(1.32001 1.69701)">
<stop offset="0.0341" stop-color="#FFF45A"/>
<stop offset="1" stop-color="#FFF45A" stop-opacity="0"/>
</radialGradient>
<radialGradient id="paint28_radial_4047_59095" cx="0" cy="0" r="1" gradientUnits="userSpaceOnUse" gradientTransform="translate(5.34002 20.0939) rotate(66.666) scale(0.433928 1.66384)">
<stop stop-color="#FFF45A" stop-opacity="0.911283"/>
<stop offset="1" stop-color="#FFF45A" stop-opacity="0"/>
</radialGradient>
<radialGradient id="paint29_radial_4047_59095" cx="0" cy="0" r="1" gradientUnits="userSpaceOnUse" gradientTransform="translate(5.59783 21.4923) rotate(-137.479) scale(5.23639 3.80855)">
<stop offset="0.872134" stop-color="#FFF45A" stop-opacity="0"/>
<stop offset="0.971574" stop-color="#D8CC28" stop-opacity="0.911283"/>
</radialGradient>
<radialGradient id="paint30_radial_4047_59095" cx="0" cy="0" r="1" gradientUnits="userSpaceOnUse" gradientTransform="translate(4.7072 21.8361) rotate(-65.9204) scale(4.27002 12.1433)">
<stop offset="0.868756" stop-color="#FFF45A" stop-opacity="0"/>
<stop offset="0.971574" stop-color="#FFF45A" stop-opacity="0.911283"/>
</radialGradient>
<radialGradient id="paint31_radial_4047_59095" cx="0" cy="0" r="1" gradientUnits="userSpaceOnUse" gradientTransform="translate(7.84783 19.133) rotate(180) scale(6.34375 3.71766)">
<stop offset="0.895262" stop-color="#A2831C" stop-opacity="0"/>
<stop offset="1" stop-color="#A2831C"/>
</radialGradient>
<linearGradient id="paint32_linear_4047_59095" x1="14.4053" y1="15.976" x2="7.53026" y2="15.976" gradientUnits="userSpaceOnUse">
<stop stop-color="#FFEA3F"/>
<stop offset="0.911458" stop-color="#A2831C"/>
</linearGradient>
<linearGradient id="paint33_linear_4047_59095" x1="10.7803" y1="16.102" x2="11.6553" y2="16.102" gradientUnits="userSpaceOnUse">
<stop offset="0.255208" stop-color="#FF9B16"/>
<stop offset="1" stop-color="#FFA022" stop-opacity="0"/>
</linearGradient>
<radialGradient id="paint34_radial_4047_59095" cx="0" cy="0" r="1" gradientUnits="userSpaceOnUse" gradientTransform="translate(13.5264 18.9291) rotate(-100.864) scale(1.57511 2.80146)">
<stop stop-color="#FFF45A"/>
<stop offset="1" stop-color="#FFF45A" stop-opacity="0"/>
</radialGradient>
<linearGradient id="paint35_linear_4047_59095" x1="18.4678" y1="16.083" x2="16.4365" y2="16.083" gradientUnits="userSpaceOnUse">
<stop offset="0.255208" stop-color="#EB8D10"/>
<stop offset="1" stop-color="#FFA022" stop-opacity="0"/>
</linearGradient>
<radialGradient id="paint36_radial_4047_59095" cx="0" cy="0" r="1" gradientUnits="userSpaceOnUse" gradientTransform="translate(15.3735 21.8672) rotate(-107.793) scale(4.19275 10.9917)">
<stop offset="0.0192045" stop-color="#FC8306"/>
<stop offset="0.217544" stop-color="#F78E13"/>
<stop offset="0.817108" stop-color="#B23A28"/>
</radialGradient>
<linearGradient id="paint37_linear_4047_59095" x1="14.077" y1="18.7423" x2="9.85823" y2="18.7423" gradientUnits="userSpaceOnUse">
<stop stop-color="#F9AB4E"/>
<stop offset="1" stop-color="#F89B4C"/>
</linearGradient>
<radialGradient id="paint38_radial_4047_59095" cx="0" cy="0" r="1" gradientUnits="userSpaceOnUse" gradientTransform="translate(12.577 17.883) rotate(76.5782) scale(4.24083 9.22084)">
<stop offset="0.838542" stop-color="#F48629" stop-opacity="0"/>
<stop offset="1" stop-color="#F48629"/>
</radialGradient>
<linearGradient id="paint39_linear_4047_59095" x1="14.5614" y1="21.6173" x2="10.1707" y2="19.6955" gradientUnits="userSpaceOnUse">
<stop offset="0.64551" stop-color="#F48629" stop-opacity="0"/>
<stop offset="1" stop-color="#F48629"/>
</linearGradient>
<radialGradient id="paint40_radial_4047_59095" cx="0" cy="0" r="1" gradientUnits="userSpaceOnUse" gradientTransform="translate(15.1707 19.633) rotate(73.4956) scale(1.32001 1.69701)">
<stop offset="0.0341" stop-color="#FFF45A"/>
<stop offset="1" stop-color="#FFF45A" stop-opacity="0"/>
</radialGradient>
<radialGradient id="paint41_radial_4047_59095" cx="0" cy="0" r="1" gradientUnits="userSpaceOnUse" gradientTransform="translate(13.499 19.9611) rotate(113.839) scale(0.734541 2.8165)">
<stop stop-color="#FFF45A" stop-opacity="0.911283"/>
<stop offset="1" stop-color="#FFF45A" stop-opacity="0"/>
</radialGradient>
<radialGradient id="paint42_radial_4047_59095" cx="0" cy="0" r="1" gradientUnits="userSpaceOnUse" gradientTransform="translate(13.1707 21.4923) rotate(-42.5209) scale(5.23639 3.80855)">
<stop offset="0.872134" stop-color="#FFF45A" stop-opacity="0"/>
<stop offset="0.971574" stop-color="#D8CC28" stop-opacity="0.911283"/>
</radialGradient>
<radialGradient id="paint43_radial_4047_59095" cx="0" cy="0" r="1" gradientUnits="userSpaceOnUse" gradientTransform="translate(14.0614 21.8361) rotate(-114.08) scale(4.27002 12.1433)">
<stop offset="0.868756" stop-color="#FFF45A" stop-opacity="0"/>
<stop offset="0.971574" stop-color="#FFF45A" stop-opacity="0.911283"/>
</radialGradient>
<radialGradient id="paint44_radial_4047_59095" cx="0" cy="0" r="1" gradientUnits="userSpaceOnUse" gradientTransform="translate(14.0303 19.4767) rotate(-5.92458) scale(3.33029 2.36931)">
<stop offset="0.868756" stop-color="#FFF45A" stop-opacity="0"/>
<stop offset="0.971574" stop-color="#FFF45A" stop-opacity="0.911283"/>
</radialGradient>
<linearGradient id="paint45_linear_4047_59095" x1="11.1885" y1="16.0078" x2="6.90535" y2="21.6953" gradientUnits="userSpaceOnUse">
<stop stop-color="#F8EC1D"/>
<stop offset="1" stop-color="#F89C20"/>
</linearGradient>
<linearGradient id="paint46_linear_4047_59095" x1="5.3741" y1="19.8203" x2="8.9366" y2="19.8203" gradientUnits="userSpaceOnUse">
<stop stop-color="#CC872E"/>
<stop offset="1" stop-color="#CC872E" stop-opacity="0"/>
</linearGradient>
<linearGradient id="paint47_linear_4047_59095" x1="9.1241" y1="15.7891" x2="9.1241" y2="21.8984" gradientUnits="userSpaceOnUse">
<stop offset="0.671096" stop-color="#FF7AF2" stop-opacity="0"/>
<stop offset="0.933555" stop-color="#FFBCE6"/>
</linearGradient>
<linearGradient id="paint48_linear_4047_59095" x1="6.15535" y1="16.775" x2="8.09285" y2="16.6641" gradientUnits="userSpaceOnUse">
<stop offset="0.510417" stop-color="#FF9B16"/>
<stop offset="1" stop-color="#FFA022" stop-opacity="0"/>
</linearGradient>
</defs>
</svg>
