<svg width="20" height="20" viewBox="0 0 20 20" fill="none" xmlns="http://www.w3.org/2000/svg">
<g clip-path="url(#clip0_3717_6276)">
<path d="M4.16613 11.6667H15.1126C15.9566 11.6667 16.3786 11.6667 16.7146 11.5094C17.0105 11.3708 17.2592 11.1482 17.4296 10.8694C17.6231 10.5529 17.6697 10.1334 17.7629 9.29457L18.2504 4.90704C18.2789 4.65082 18.2931 4.52271 18.2519 4.42355C18.2157 4.33646 18.1511 4.26422 18.0685 4.21865C17.9745 4.16675 17.8456 4.16675 17.5878 4.16675H3.74947M1.66602 1.66675H2.70638C2.9269 1.66675 3.03716 1.66675 3.12342 1.70869C3.19936 1.7456 3.2623 1.80473 3.30388 1.87822C3.35112 1.96169 3.35799 2.07174 3.37175 2.29183L4.12695 14.375C4.1407 14.5951 4.14758 14.7051 4.19482 14.7886C4.2364 14.8621 4.29933 14.9212 4.37528 14.9581C4.46154 15.0001 4.5718 15.0001 4.79232 15.0001H15.8327M6.24935 17.9167H6.25768M13.7493 17.9167H13.7577M6.66602 17.9167C6.66602 18.1469 6.47947 18.3334 6.24935 18.3334C6.01923 18.3334 5.83268 18.1469 5.83268 17.9167C5.83268 17.6866 6.01923 17.5001 6.24935 17.5001C6.47947 17.5001 6.66602 17.6866 6.66602 17.9167ZM14.166 17.9167C14.166 18.1469 13.9795 18.3334 13.7493 18.3334C13.5192 18.3334 13.3327 18.1469 13.3327 17.9167C13.3327 17.6866 13.5192 17.5001 13.7493 17.5001C13.9795 17.5001 14.166 17.6866 14.166 17.9167Z" stroke="#4D0039" stroke-width="1.66667" stroke-linecap="round" stroke-linejoin="round"/>
</g>
<defs>
<clipPath id="clip0_3717_6276">
<rect width="20" height="20" fill="white"/>
</clipPath>
</defs>
</svg>
